<?xml version="1.0" standalone="no"?>
<!DOCTYPE svg PUBLIC "-//W3C//DTD SVG 20010904//EN"
 "http://www.w3.org/TR/2001/REC-SVG-20010904/DTD/svg10.dtd">
<svg version="1.0" xmlns="http://www.w3.org/2000/svg"
 width="500.000000pt" height="500.000000pt" viewBox="0 0 500.000000 500.000000"
 preserveAspectRatio="xMidYMid meet">
<metadata>
Created by potrace 1.11, written by Peter Selinger 2001-2013
</metadata>
<g transform="translate(0.000000,500.000000) scale(0.100000,-0.100000)"
fill="#000000" stroke="none">
<path d="M3139 4491 c-14 -4 -36 -14 -50 -21 -42 -23 -218 -206 -234 -244 -13
-32 -16 -113 -15 -584 l0 -547 -28 55 c-51 101 -168 159 -268 132 -58 -16
-119 -57 -144 -97 -11 -18 -38 -44 -61 -59 -42 -29 -99 -107 -99 -139 0 -27
-17 -12 -25 22 -8 38 -68 107 -114 130 -95 49 -206 31 -276 -44 -63 -69 -67
-73 -114 -113 -24 -20 -52 -55 -62 -77 -18 -39 -19 -31 -19 495 l0 535 -24 50
c-45 98 -123 149 -222 148 -92 -1 -172 -51 -215 -135 -18 -36 -19 -73 -19
-1129 0 -1048 1 -1095 20 -1188 89 -440 361 -805 752 -1011 117 -62 302 -124
433 -146 123 -21 334 -23 435 -5 470 84 873 433 1020 886 27 84 33 120 38 226
6 153 -1 187 -104 528 -101 338 -176 480 -273 520 l-31 13 0 802 c0 498 -4
814 -10 837 -13 47 -72 115 -122 140 -45 23 -129 33 -169 20z"/>
</g>
</svg>
